<svg xmlns="http://www.w3.org/2000/svg"><symbol id="fleur-de-lis" viewBox="0 0 346.85 372.836"><path d="M217.347 249.436c2.092 0 3.786.991 3.786 2.213 0 1.224-1.694 2.215-3.786 2.215h-87.088c-2.092 0-3.787-.991-3.787-2.215 0-1.222 1.695-2.213 3.787-2.213h87.088m0-6h-87.088c-5.58 0-9.787 3.53-9.787 8.213 0 4.684 4.208 8.215 9.787 8.215h87.088c5.578 0 9.786-3.531 9.786-8.215 0-4.683-4.208-8.213-9.786-8.213zM217.347 280.417c2.092 0 3.786.991 3.786 2.213 0 1.224-1.694 2.214-3.786 2.214h-87.088c-2.092 0-3.787-.99-3.787-2.214 0-1.222 1.695-2.213 3.787-2.213h87.088m0-6h-87.088c-5.58 0-9.787 3.53-9.787 8.213s4.208 8.214 9.787 8.214h87.088c5.578 0 9.786-3.531 9.786-8.214s-4.208-8.213-9.786-8.213z"/><path fill="none" stroke="#000" stroke-width="6" d="M226.751 267.139c0 5.514-5.6 9.982-12.505 9.982h-80.888c-6.906 0-12.505-4.471-12.505-9.982 0-5.516 5.599-9.984 12.505-9.984h80.888c6.907-.001 12.505 4.469 12.505 9.984z"/><path fill="none" stroke="#000" stroke-width="6" d="M138.811 288.07c-.255.406-.504.816-.781 1.214-11.416 16.377-49.65 7.444-28.31-28.286-36.066-4.747-45.65 29.279-35.228 47.641 11.453 23.411 61.479 30.428 80.41-2.978 2.924-5.161 4.899-11.17 6.144-17.591h-22.235zm-28.571-65.781c11.402 5.995 20.278 14.603 26.009 24.044h24.517c-10.75-63.996-59.869-95.898-106.606-90.543-53.284 6.105-81.882 90.319.496 110.666-13.4-24.813 7.443-69.477 55.584-44.167z"/><path fill="none" stroke="#000" stroke-width="6" d="M186.669 300.936a218.61 218.61 0 0 1-1.193-12.865H161.97a216.083 216.083 0 0 1-1.239 13.938c-12.647 8.146-7.717 25.725-23.735 36.234 10.062.265 18.271-1.708 20.92-5.415 0 10.75 9.617 19.812 15.886 32.858 5.824-13.119 15.208-24.095 15.208-32.858 2.648 3.707 10.857 5.68 20.921 5.415-14.688-9.011-8.899-25.516-23.262-37.307zm30.102-206.449c-6.494-13.488-35.922-68.015-43.417-86.502-7.494 18.486-36.702 73.013-43.198 86.503-5.728 11.893-17.488 38.472-2.998 65.452 10.178 18.952 26.798 47.126 32.854 86.278h27.147c5.805-39.28 22.357-67.189 32.609-86.279 14.49-26.98 2.729-53.559-2.997-65.452z"/><path fill="none" stroke="#000" stroke-width="6" d="M292.69 155.79c-46.71-5.352-95.797 26.509-106.587 90.428h24.567c5.734-9.396 14.583-17.958 25.939-23.929 48.14-25.311 68.982 19.354 55.584 44.167 82.38-20.347 53.781-104.561.497-110.666zm-55.56 105.208c21.34 35.73-16.895 44.663-28.311 28.286-.277-.397-.525-.808-.781-1.214h-22.233c1.244 6.421 3.22 12.43 6.144 17.591 18.931 33.405 68.957 26.389 80.41 2.978 10.421-18.362.837-52.388-35.229-47.641z"/></symbol><symbol id="jolly-roger" viewBox="0 0 100 100"><style>.outline,.tooth{fill:none;stroke:#000;stroke-width:3px}.tooth{stroke-linecap:round}</style><g id="layer1" transform="translate(13.488 .25) scale(.24085)"><g id="skull-and-bones"><g id="head"><g id="head-coloring"><path id="path21" d="M241.52 25.967c22.449 21.285 36.082 50.852 36.082 87.411 0 20.736-4.676 42.822-18.117 59.185-8.236 10.026-18.723 17.207-30.586 22.225-9.082 3.84-18.936 5.461-23.766 14.997-4.809 9.491-3.758 16.239-13.086 23.548-15.846 12.416-38.945 15.047-58.446 15.047-15.153 0-32.478-1.592-46.885-8.126 1.402 2.419 3.35 4.778 6.44 7.2 13.691 10.728 32.796 14.147 50.317 14.881 2.757.115 5.477.166 8.128.166 19.5 0 42.6-2.631 58.445-15.047 2.211-1.733 3.835-3.435 5.096-5.148.227-.308.445-.616.649-.925 3.452-5.225 3.876-10.638 7.341-17.475 2.741-5.413 7.104-8.274 12.021-10.439 3.748-1.65 7.816-2.897 11.744-4.558 11.863-5.018 22.35-12.198 30.586-22.225 13.441-16.362 18.117-38.448 18.117-59.185 0-45.52-21.12-80.197-54.08-101.54z" fill="#dbdbbc"/><path id="path25" d="M241.52 25.967C216.88 10.01 185.62 1.5 151.6 1.5c-79.529 0-144 46.471-144 126 0 20.736 4.675 42.822 18.117 59.185a71.309 71.309 0 0 0 2.921 3.33c7.739 8.308 17.161 14.451 27.666 18.893 2.165.916 4.374 1.705 6.548 2.506 6.946 2.558 13.539 5.229 17.218 12.492 3.215 6.347 3.814 11.467 6.645 16.348 14.407 6.534 31.732 8.126 46.885 8.126 19.5 0 42.6-2.631 58.446-15.047 9.328-7.309 8.277-14.057 13.086-23.548 4.83-9.536 14.684-11.157 23.766-14.997 11.863-5.018 22.35-12.198 30.586-22.225 13.441-16.362 18.117-38.448 18.117-59.185-.001-36.559-13.634-66.126-36.083-87.41z" fill="#f2f2e4"/></g><path id="head-outline" class="outline" d="M151.6 262.5c19.502 0 42.602-2.631 58.447-15.047 9.327-7.309 8.277-14.057 13.085-23.548 4.831-9.536 14.685-11.157 23.767-14.997 11.863-5.018 22.35-12.198 30.586-22.225 13.441-16.362 18.117-38.448 18.117-59.185 0-79.528-64.472-126-144-126-79.529 0-144 46.471-144 126 0 20.736 4.675 42.822 18.117 59.185 8.236 10.026 18.723 17.207 30.587 22.225 9.082 3.84 18.935 5.461 23.766 14.997 4.808 9.491 3.758 16.239 13.085 23.548 15.846 12.416 38.946 15.047 58.447 15.047h-.004z"/></g><g id="bone"><path id="bones-shadow" class="coloring" d="M285.18 326.57c-11.22-4.732-23.835-1.303-31.241 7.596-9.399-6.95-16.929-11.618-22.651-15.102 8.383-5.1 15.982-10.17 22.651-15.102 7.406 8.898 20.021 12.328 31.241 7.596 13.74-5.795 20.18-21.631 14.384-35.371a26.897 26.897 0 0 0-13.334-13.912 26.898 26.898 0 0 0-.657-19.258c-5.795-13.74-21.631-20.18-35.371-14.385-11.22 4.732-17.567 16.16-16.364 27.676-22.87 3.729-51.575 11.898-82.241 23.9-30.667-12.002-59.371-20.172-82.242-23.9 1.203-11.516-5.145-22.943-16.364-27.676-13.74-5.795-29.576.645-35.371 14.385a26.898 26.898 0 0 0-.657 19.258 26.897 26.897 0 0 0-13.334 13.912c-5.796 13.74.644 29.576 14.384 35.371 11.221 4.732 23.835 1.303 31.241-7.596 6.669 4.932 14.269 10.002 22.651 15.102-8.382 5.102-15.982 10.17-22.651 15.102-7.406-8.898-20.021-12.328-31.241-7.596-13.739 5.797-20.18 21.633-14.384 35.371a26.888 26.888 0 0 0 13.335 13.912 26.898 26.898 0 0 0 .656 19.26c5.795 13.738 21.631 20.178 35.371 14.383 11.22-4.732 17.567-16.16 16.364-27.676 22.871-3.727 51.575-11.896 82.242-23.9 30.666 12.004 59.371 20.174 82.241 23.9-1.203 11.516 5.145 22.943 16.364 27.676 13.74 5.795 29.576-.645 35.371-14.383a26.898 26.898 0 0 0 .656-19.26 26.888 26.888 0 0 0 13.335-13.912c5.796-13.738-.645-29.574-14.384-35.371z" stroke-linejoin="round" stroke="#000" stroke-width="3" stroke-linecap="round" fill="#dbdbbc"/><path id="bones-highlight" d="M160.93 278.09c26.663-10.436 41.232-16.569 64.754-20.404l8.158-1.381 1.958-6.24c-.875-8.373 3.752-16.199 11.516-19.474 4.676-1.972 9.842-2.005 14.543-.094s8.375 5.54 10.348 10.216c1.527 3.621 1.352 8.053-.537 13.55l-2.326 6.772 6.473 3.06c4.891 2.312 8.771 5.972 10.383 9.789 1.973 4.677 2.006 9.841.094 14.542s-5.539 8.377-10.215 10.349c-7.766 3.274-16.6 1.128-21.984-5.343l-4.832-5.805-6.074 4.49c-5.473 4.048-12.355 8.217-19.643 12.631l-14.779 8.966 11.369 6.771 4.08 2.434c5.299 3.133 11.895 7.032 18.975 12.267l7.829 4.5 4.666-5c5.385-6.471 12.628-9.432 20.392-6.157 7.25 3.059 11.617 10.118 11.617 17.532 0 2.458-.48 4.955-1.494 7.358-1.414 3.353-4.615 6.062-10.383 8.789l-6.475 3.06 2.328 6.772c1.039 3.025 1.564 6.045 1.564 8.757 0 2.183-.34 4.167-1.027 5.795-4.07 9.651-15.236 14.191-24.891 10.12-7.764-3.274-12.391-11.101-11.516-19.474l.783-7.512-7.455-1.215c-23.525-3.834-53.951-15.019-80.612-25.454l-2.916-1.142-2.916 1.142c-26.66 10.436-57.086 21.62-80.611 25.454l-7.454 1.215.784 7.512c.875 8.373-3.753 16.199-11.518 19.474-9.653 4.071-20.819-.469-24.891-10.121-1.738-4.122-1.045-10.943.538-15.551l2.327-6.771-6.474-3.061c-5.496-2.599-8.938-4.364-10.381-7.787-4.073-9.654.467-20.819 10.121-24.893 7.763-3.274 20.164-6.535 25.55-.064l5.674 3.222 2.907 2.477c5.456-4.035 17.76-9.811 17.76-9.811l15.323-10.706-11.273-6.829-3.408-2.067c-7.287-4.414-14.17-8.583-19.644-12.632l-6.073-4.491-4.832 5.806c-5.386 6.471-14.221 8.617-21.984 5.343a18.871 18.871 0 0 1-10.217-10.349 18.87 18.87 0 0 1 .096-14.541c1.414-3.354 6.033-7.091 11.799-9.816l5.097-3.059-2.368-5.748c-1.876-5.459-2.077-10.897-.538-14.549 1.973-4.676 5.647-8.305 10.349-10.216s9.866-1.878 14.543.094c7.764 3.274 13.392 9.101 12.517 17.474l-.784 7.512 7.454 1.215c35.944 4.228 81.99 27.79 81.99 27.79l15.866-6.493z" fill="#f2f2e4"/><path id="bones-outline" class="outline" d="M285.18 326.57c-11.22-4.732-23.835-1.303-31.241 7.596-9.399-6.95-16.929-11.618-22.651-15.102 8.383-5.1 15.982-10.17 22.651-15.102 7.406 8.898 20.021 12.328 31.241 7.596 13.74-5.795 20.18-21.631 14.384-35.371a26.897 26.897 0 0 0-13.334-13.912 26.898 26.898 0 0 0-.657-19.258c-5.795-13.74-21.631-20.18-35.371-14.385-11.22 4.732-17.567 16.16-16.364 27.676-22.87 3.729-51.575 11.898-82.241 23.9-30.667-12.002-59.371-20.172-82.242-23.9 1.203-11.516-5.145-22.943-16.364-27.676-13.74-5.795-29.576.645-35.371 14.385a26.898 26.898 0 0 0-.657 19.258 26.897 26.897 0 0 0-13.334 13.912c-5.796 13.74.644 29.576 14.384 35.371 11.221 4.732 23.835 1.303 31.241-7.596 6.669 4.932 14.269 10.002 22.651 15.102-8.382 5.102-15.982 10.17-22.651 15.102-7.406-8.898-20.021-12.328-31.241-7.596-13.739 5.797-20.18 21.633-14.384 35.371a26.888 26.888 0 0 0 13.335 13.912 26.898 26.898 0 0 0 .656 19.26c5.795 13.738 21.631 20.178 35.371 14.383 11.22-4.732 17.567-16.16 16.364-27.676 22.871-3.727 51.575-11.896 82.242-23.9 30.666 12.004 59.371 20.174 82.241 23.9-1.203 11.516 5.145 22.943 16.364 27.676 13.74 5.795 29.576-.645 35.371-14.383a26.898 26.898 0 0 0 .656-19.26 26.888 26.888 0 0 0 13.335-13.912c5.796-13.738-.645-29.574-14.384-35.371z"/></g></g><g id="face"><g id="g31"><path id="left-eye" d="M120.89 175.54c-6.8 18.684-27.458 28.316-46.142 21.517-18.683-6.8-28.316-27.458-21.516-46.142s30.537-36.773 49.22-29.974c18.684 6.8 25.239 35.916 18.438 54.599z"/><path id="right-eye" d="M249.96 150.92c6.801 18.684-2.832 39.342-21.516 46.142s-39.342-2.833-46.143-21.517c-6.799-18.683-.246-47.799 18.439-54.599 18.685-6.799 42.42 11.29 49.22 29.974z"/></g><g id="g59"><path id="left-nostril" d="M146.39 199.92c-2.647 6.97-5.079 7.698-7.402 6.815-2.323-.882-3.659-3.041-1.011-10.011 2.647-6.971 10.598-15.229 10.598-15.229s.462 11.454-2.185 18.425z"/><path id="right-nostril" d="M156.8 199.92c2.647 6.97 5.078 7.698 7.402 6.815 2.322-.882 3.658-3.041 1.012-10.011-2.64-6.96-10.59-15.22-10.59-15.22s-.463 11.454 2.184 18.425z"/></g><g id="mouth"><path class="tooth" d="M123.1 237.61v-8M137.35 229.61v8M151.6 229.61v8M165.85 229.61v8M180.1 229.61v8"/></g></g></g></symbol><symbol id="pp-logo" viewBox="0 0 100 100"><title>Passions Play Logo</title><circle r="13" cy="55" cx="85"/><path d="M54.495 0h25.3c.629 32.222-22.294 50.772-12.278 62.571C68.556 63.796 74 67 78 66c0-6 12-6 12 1-8 3-24.721 1.609-24.721 1.609C49.74 67.737 38.624 75 38.624 75s-2.585-8.333 1.763-8.333C44.733 47.205 62.944 8.219 53.997 2.35c.12-.583.318-1.5.498-2.351z"/><rect width="25" height="100" x="22" rx="0" ry="0" transform="skewX(-12)"/></symbol></svg>