<?xml version="1.0" encoding="UTF-8" standalone="no"?>
<svg xmlns="http://www.w3.org/2000/svg">
	<!-- 

	Using the `symbol` element is helpful for creating an icon library
	because it allows us to define accessibility elements like `title`
	as well as attributes like `viewBox` for a more consistent implementation.

	This also means that the actual markup in the main document is cleaner
	since all of these definitions are defined in one place, we simply 
	need to reference the element using an `xlink:href` attribute, something
	like:

	<svg class="icon icon-pp-logo">
		<use xlink:href="/pp-logo.svg#pp-logo" />
	</svg>

	Note that the `xlink:href` can reference an external file. This is
	important because we can make use of browser cacheing of this file.

	Also note that for this document to be valid, we need the xml doctype:

	`<?xml version="1.0" encoding="UTF-8" standalone="no"?>`

	along with the namespace on the svg element:

	`<svg xmlns="http://www.w3.org/2000/svg">`

	-->
	<symbol id="pp-logo" viewBox="0 0 100 100">
		<title>Passions Play Logo</title>
			<circle
				 r="13"
				 cy="55"
				 cx="85"
				 id="pp-logo-terminal" />
			<path
				 d="M 54.495122,0 79.7954,0 C 80.423827,32.221523 57.501319,50.771787 67.516812,62.571465 68.555922,63.795681 74,67 78,66 c 0,-6 12,-6 12,1 -8,3 -24.721481,1.608902 -24.721481,1.608902 -15.53786,-0.872204 -26.654739,6.391107 -26.654739,6.391107 0,0 -2.584734,-8.333334 1.76348,-8.333334 C 44.732877,47.204617 62.944365,8.2189544 53.997505,2.3514769 54.117708,1.7677002 54.315105,0.85065004 54.495122,0 Z"
				 id="rect3804-4-9" />
			<rect
				 id="pp-logo-stem"
				 width="25"
				 height="100"
				 x="22"
				 y="0"
				 rx="0"
				 ry="0"
				 transform="matrix(1,0,-0.21255656,1,0,0)" />
	</symbol>
</svg>

